<mxfile host="Electron" modified="2024-09-27T05:34:32.895Z" agent="Mozilla/5.0 (Windows NT 10.0; Win64; x64) AppleWebKit/537.36 (KHTML, like Gecko) draw.io/23.0.2 Chrome/120.0.6099.109 Electron/28.1.0 Safari/537.36" etag="-q2JdekpKlvFhhr0Tegp" version="23.0.2" type="device" pages="5">
  <diagram name="TOP" id="0dA67gKPN3xn_fa0jh0D">
    <mxGraphModel dx="1221" dy="1125" grid="1" gridSize="10" guides="1" tooltips="1" connect="1" arrows="1" fold="1" page="0" pageScale="1" pageWidth="827" pageHeight="1169" math="0" shadow="0">
      <root>
        <mxCell id="0" />
        <mxCell id="1" parent="0" />
        <mxCell id="vrEUEI0onQM0kqOxGJqF-59" style="edgeStyle=orthogonalEdgeStyle;rounded=0;orthogonalLoop=1;jettySize=auto;html=1;entryX=0;entryY=0.75;entryDx=0;entryDy=0;" parent="1" source="vrEUEI0onQM0kqOxGJqF-57" target="vrEUEI0onQM0kqOxGJqF-17" edge="1">
          <mxGeometry relative="1" as="geometry" />
        </mxCell>
        <mxCell id="vrEUEI0onQM0kqOxGJqF-60" style="edgeStyle=orthogonalEdgeStyle;rounded=0;orthogonalLoop=1;jettySize=auto;html=1;entryX=0;entryY=0.75;entryDx=0;entryDy=0;" parent="1" source="vrEUEI0onQM0kqOxGJqF-57" target="vrEUEI0onQM0kqOxGJqF-18" edge="1">
          <mxGeometry relative="1" as="geometry" />
        </mxCell>
        <mxCell id="vrEUEI0onQM0kqOxGJqF-52" value="" style="rounded=1;whiteSpace=wrap;html=1;fillColor=none;" parent="1" vertex="1">
          <mxGeometry x="120" y="100" width="720" height="1320" as="geometry" />
        </mxCell>
        <mxCell id="vrEUEI0onQM0kqOxGJqF-23" value="" style="rounded=0;whiteSpace=wrap;html=1;fillColor=none;" parent="1" vertex="1">
          <mxGeometry x="160" y="180" width="640" height="430" as="geometry" />
        </mxCell>
        <mxCell id="vrEUEI0onQM0kqOxGJqF-26" value="" style="rounded=0;whiteSpace=wrap;html=1;fillColor=none;" parent="1" vertex="1">
          <mxGeometry x="160" y="1120" width="630" height="260" as="geometry" />
        </mxCell>
        <mxCell id="vrEUEI0onQM0kqOxGJqF-54" style="edgeStyle=orthogonalEdgeStyle;rounded=0;orthogonalLoop=1;jettySize=auto;html=1;entryX=0.5;entryY=0;entryDx=0;entryDy=0;" parent="1" source="tA7r-dQTq5ioGiGd-rbI-2" target="vrEUEI0onQM0kqOxGJqF-3" edge="1">
          <mxGeometry relative="1" as="geometry" />
        </mxCell>
        <mxCell id="tA7r-dQTq5ioGiGd-rbI-2" value="IFM&lt;br style=&quot;font-size: 25px;&quot;&gt;(64*9bit)" style="text;html=1;strokeColor=none;fillColor=none;align=center;verticalAlign=middle;whiteSpace=wrap;rounded=0;fontSize=25;" parent="1" vertex="1">
          <mxGeometry x="277.5" y="-30" width="105" height="60" as="geometry" />
        </mxCell>
        <mxCell id="vrEUEI0onQM0kqOxGJqF-55" style="edgeStyle=orthogonalEdgeStyle;rounded=0;orthogonalLoop=1;jettySize=auto;html=1;entryX=0.5;entryY=0;entryDx=0;entryDy=0;" parent="1" source="tA7r-dQTq5ioGiGd-rbI-3" target="vrEUEI0onQM0kqOxGJqF-4" edge="1">
          <mxGeometry relative="1" as="geometry" />
        </mxCell>
        <mxCell id="tA7r-dQTq5ioGiGd-rbI-3" value="WFM&lt;br style=&quot;font-size: 25px;&quot;&gt;(64*9bit)" style="text;html=1;strokeColor=none;fillColor=none;align=center;verticalAlign=middle;whiteSpace=wrap;rounded=0;fontSize=25;" parent="1" vertex="1">
          <mxGeometry x="580" y="-40" width="120" height="70" as="geometry" />
        </mxCell>
        <mxCell id="tA7r-dQTq5ioGiGd-rbI-5" value="Not included in the draft version" style="text;html=1;strokeColor=none;fillColor=none;align=center;verticalAlign=middle;whiteSpace=wrap;rounded=0;" parent="1" vertex="1">
          <mxGeometry x="840" width="100" height="30" as="geometry" />
        </mxCell>
        <mxCell id="vrEUEI0onQM0kqOxGJqF-29" style="edgeStyle=orthogonalEdgeStyle;rounded=0;orthogonalLoop=1;jettySize=auto;html=1;entryX=0.5;entryY=0;entryDx=0;entryDy=0;" parent="1" source="vrEUEI0onQM0kqOxGJqF-3" target="vrEUEI0onQM0kqOxGJqF-5" edge="1">
          <mxGeometry relative="1" as="geometry" />
        </mxCell>
        <mxCell id="vrEUEI0onQM0kqOxGJqF-3" value="IFM FIFO&lt;br&gt;(depth=2)" style="rounded=1;whiteSpace=wrap;html=1;" parent="1" vertex="1">
          <mxGeometry x="270" y="240" width="120" height="40" as="geometry" />
        </mxCell>
        <mxCell id="vrEUEI0onQM0kqOxGJqF-32" style="edgeStyle=orthogonalEdgeStyle;rounded=0;orthogonalLoop=1;jettySize=auto;html=1;" parent="1" source="vrEUEI0onQM0kqOxGJqF-4" target="vrEUEI0onQM0kqOxGJqF-6" edge="1">
          <mxGeometry relative="1" as="geometry" />
        </mxCell>
        <mxCell id="vrEUEI0onQM0kqOxGJqF-4" value="WFM FIFO&lt;br&gt;(depth=2)" style="rounded=1;whiteSpace=wrap;html=1;" parent="1" vertex="1">
          <mxGeometry x="580" y="240" width="120" height="40" as="geometry" />
        </mxCell>
        <mxCell id="vrEUEI0onQM0kqOxGJqF-30" style="edgeStyle=orthogonalEdgeStyle;rounded=0;orthogonalLoop=1;jettySize=auto;html=1;" parent="1" source="vrEUEI0onQM0kqOxGJqF-5" target="vrEUEI0onQM0kqOxGJqF-7" edge="1">
          <mxGeometry relative="1" as="geometry" />
        </mxCell>
        <mxCell id="vrEUEI0onQM0kqOxGJqF-5" value="decoder" style="rounded=0;whiteSpace=wrap;html=1;" parent="1" vertex="1">
          <mxGeometry x="270" y="320" width="120" height="40" as="geometry" />
        </mxCell>
        <mxCell id="vrEUEI0onQM0kqOxGJqF-33" style="edgeStyle=orthogonalEdgeStyle;rounded=0;orthogonalLoop=1;jettySize=auto;html=1;" parent="1" source="vrEUEI0onQM0kqOxGJqF-6" target="vrEUEI0onQM0kqOxGJqF-8" edge="1">
          <mxGeometry relative="1" as="geometry" />
        </mxCell>
        <mxCell id="vrEUEI0onQM0kqOxGJqF-6" value="decoder" style="rounded=0;whiteSpace=wrap;html=1;" parent="1" vertex="1">
          <mxGeometry x="580" y="320" width="120" height="40" as="geometry" />
        </mxCell>
        <mxCell id="vrEUEI0onQM0kqOxGJqF-31" style="edgeStyle=orthogonalEdgeStyle;rounded=0;orthogonalLoop=1;jettySize=auto;html=1;entryX=0.5;entryY=0;entryDx=0;entryDy=0;" parent="1" source="vrEUEI0onQM0kqOxGJqF-7" target="vrEUEI0onQM0kqOxGJqF-9" edge="1">
          <mxGeometry relative="1" as="geometry" />
        </mxCell>
        <mxCell id="vrEUEI0onQM0kqOxGJqF-7" value="MBE decoder" style="rounded=0;whiteSpace=wrap;html=1;dashed=1;" parent="1" vertex="1">
          <mxGeometry x="270" y="420" width="120" height="40" as="geometry" />
        </mxCell>
        <mxCell id="vrEUEI0onQM0kqOxGJqF-34" style="edgeStyle=orthogonalEdgeStyle;rounded=0;orthogonalLoop=1;jettySize=auto;html=1;entryX=0.5;entryY=0;entryDx=0;entryDy=0;" parent="1" source="vrEUEI0onQM0kqOxGJqF-8" target="vrEUEI0onQM0kqOxGJqF-10" edge="1">
          <mxGeometry relative="1" as="geometry" />
        </mxCell>
        <mxCell id="vrEUEI0onQM0kqOxGJqF-8" value="WFM transpose buffer" style="rounded=1;whiteSpace=wrap;html=1;dashed=1;" parent="1" vertex="1">
          <mxGeometry x="580" y="400" width="120" height="80" as="geometry" />
        </mxCell>
        <mxCell id="vrEUEI0onQM0kqOxGJqF-39" style="edgeStyle=orthogonalEdgeStyle;rounded=0;orthogonalLoop=1;jettySize=auto;html=1;entryX=0.25;entryY=0;entryDx=0;entryDy=0;fillColor=#f8cecc;strokeColor=#b85450;" parent="1" source="vrEUEI0onQM0kqOxGJqF-9" target="vrEUEI0onQM0kqOxGJqF-16" edge="1">
          <mxGeometry relative="1" as="geometry">
            <Array as="points">
              <mxPoint x="330" y="640" />
              <mxPoint x="240" y="640" />
            </Array>
          </mxGeometry>
        </mxCell>
        <mxCell id="vrEUEI0onQM0kqOxGJqF-40" style="edgeStyle=orthogonalEdgeStyle;rounded=0;orthogonalLoop=1;jettySize=auto;html=1;entryX=0.25;entryY=0;entryDx=0;entryDy=0;fillColor=#f8cecc;strokeColor=#b85450;" parent="1" source="vrEUEI0onQM0kqOxGJqF-9" target="vrEUEI0onQM0kqOxGJqF-17" edge="1">
          <mxGeometry relative="1" as="geometry">
            <Array as="points">
              <mxPoint x="330" y="640" />
              <mxPoint x="380" y="640" />
            </Array>
          </mxGeometry>
        </mxCell>
        <mxCell id="vrEUEI0onQM0kqOxGJqF-41" style="edgeStyle=orthogonalEdgeStyle;rounded=0;orthogonalLoop=1;jettySize=auto;html=1;entryX=0.25;entryY=0;entryDx=0;entryDy=0;fillColor=#f8cecc;strokeColor=#b85450;" parent="1" source="vrEUEI0onQM0kqOxGJqF-9" target="vrEUEI0onQM0kqOxGJqF-18" edge="1">
          <mxGeometry relative="1" as="geometry">
            <Array as="points">
              <mxPoint x="330" y="640" />
              <mxPoint x="520" y="640" />
            </Array>
          </mxGeometry>
        </mxCell>
        <mxCell id="vrEUEI0onQM0kqOxGJqF-9" value="PIPELINE" style="rounded=1;whiteSpace=wrap;html=1;" parent="1" vertex="1">
          <mxGeometry x="270" y="520" width="120" height="40" as="geometry" />
        </mxCell>
        <mxCell id="vrEUEI0onQM0kqOxGJqF-42" style="edgeStyle=orthogonalEdgeStyle;rounded=0;orthogonalLoop=1;jettySize=auto;html=1;exitX=0.5;exitY=1;exitDx=0;exitDy=0;entryX=0.75;entryY=0;entryDx=0;entryDy=0;fillColor=#dae8fc;strokeColor=#6c8ebf;" parent="1" source="vrEUEI0onQM0kqOxGJqF-10" target="vrEUEI0onQM0kqOxGJqF-16" edge="1">
          <mxGeometry relative="1" as="geometry">
            <Array as="points">
              <mxPoint x="640" y="660" />
              <mxPoint x="300" y="660" />
            </Array>
          </mxGeometry>
        </mxCell>
        <mxCell id="vrEUEI0onQM0kqOxGJqF-43" style="edgeStyle=orthogonalEdgeStyle;rounded=0;orthogonalLoop=1;jettySize=auto;html=1;entryX=0.75;entryY=0;entryDx=0;entryDy=0;fillColor=#dae8fc;strokeColor=#6c8ebf;" parent="1" source="vrEUEI0onQM0kqOxGJqF-10" target="vrEUEI0onQM0kqOxGJqF-17" edge="1">
          <mxGeometry relative="1" as="geometry">
            <Array as="points">
              <mxPoint x="640" y="660" />
              <mxPoint x="440" y="660" />
            </Array>
          </mxGeometry>
        </mxCell>
        <mxCell id="vrEUEI0onQM0kqOxGJqF-44" style="edgeStyle=orthogonalEdgeStyle;rounded=0;orthogonalLoop=1;jettySize=auto;html=1;entryX=0.75;entryY=0;entryDx=0;entryDy=0;fillColor=#dae8fc;strokeColor=#6c8ebf;" parent="1" source="vrEUEI0onQM0kqOxGJqF-10" target="vrEUEI0onQM0kqOxGJqF-18" edge="1">
          <mxGeometry relative="1" as="geometry">
            <Array as="points">
              <mxPoint x="640" y="660" />
              <mxPoint x="580" y="660" />
            </Array>
          </mxGeometry>
        </mxCell>
        <mxCell id="vrEUEI0onQM0kqOxGJqF-10" value="PIPELINE" style="rounded=1;whiteSpace=wrap;html=1;" parent="1" vertex="1">
          <mxGeometry x="580" y="520" width="120" height="40" as="geometry" />
        </mxCell>
        <mxCell id="vrEUEI0onQM0kqOxGJqF-11" value="x 64" style="text;html=1;strokeColor=none;fillColor=none;align=center;verticalAlign=middle;whiteSpace=wrap;rounded=0;" parent="1" vertex="1">
          <mxGeometry x="340" y="360" width="60" height="30" as="geometry" />
        </mxCell>
        <mxCell id="vrEUEI0onQM0kqOxGJqF-13" value="x 64" style="text;html=1;strokeColor=none;fillColor=none;align=center;verticalAlign=middle;whiteSpace=wrap;rounded=0;" parent="1" vertex="1">
          <mxGeometry x="340" y="460" width="60" height="30" as="geometry" />
        </mxCell>
        <mxCell id="vrEUEI0onQM0kqOxGJqF-14" value="x 64" style="text;html=1;strokeColor=none;fillColor=none;align=center;verticalAlign=middle;whiteSpace=wrap;rounded=0;" parent="1" vertex="1">
          <mxGeometry x="650" y="360" width="60" height="30" as="geometry" />
        </mxCell>
        <mxCell id="vrEUEI0onQM0kqOxGJqF-16" value="mac lane" style="rounded=1;whiteSpace=wrap;html=1;fontStyle=1" parent="1" vertex="1">
          <mxGeometry x="210" y="710" width="120" height="350" as="geometry" />
        </mxCell>
        <mxCell id="vrEUEI0onQM0kqOxGJqF-17" value="mac lane" style="rounded=1;whiteSpace=wrap;html=1;fontStyle=1" parent="1" vertex="1">
          <mxGeometry x="350" y="710" width="120" height="350" as="geometry" />
        </mxCell>
        <mxCell id="vrEUEI0onQM0kqOxGJqF-18" value="mac lane" style="rounded=1;whiteSpace=wrap;html=1;fontStyle=1" parent="1" vertex="1">
          <mxGeometry x="490" y="710" width="120" height="350" as="geometry" />
        </mxCell>
        <mxCell id="vrEUEI0onQM0kqOxGJqF-19" value="x 64" style="text;html=1;strokeColor=none;fillColor=none;align=center;verticalAlign=middle;whiteSpace=wrap;rounded=0;fontSize=23;" parent="1" vertex="1">
          <mxGeometry x="720" y="920" width="60" height="30" as="geometry" />
        </mxCell>
        <mxCell id="vrEUEI0onQM0kqOxGJqF-21" value="" style="endArrow=none;dashed=1;html=1;rounded=0;strokeWidth=3;" parent="1" edge="1">
          <mxGeometry width="50" height="50" relative="1" as="geometry">
            <mxPoint x="650" y="890" as="sourcePoint" />
            <mxPoint x="740" y="890" as="targetPoint" />
          </mxGeometry>
        </mxCell>
        <mxCell id="vrEUEI0onQM0kqOxGJqF-50" style="edgeStyle=orthogonalEdgeStyle;rounded=0;orthogonalLoop=1;jettySize=auto;html=1;entryX=0.5;entryY=0;entryDx=0;entryDy=0;" parent="1" source="vrEUEI0onQM0kqOxGJqF-22" target="vrEUEI0onQM0kqOxGJqF-28" edge="1">
          <mxGeometry relative="1" as="geometry" />
        </mxCell>
        <mxCell id="vrEUEI0onQM0kqOxGJqF-22" value="output transpose buffer" style="rounded=1;whiteSpace=wrap;html=1;dashed=1;" parent="1" vertex="1">
          <mxGeometry x="240" y="1170" width="470" height="110" as="geometry" />
        </mxCell>
        <mxCell id="vrEUEI0onQM0kqOxGJqF-25" value="MAC preprocessing unit" style="text;html=1;strokeColor=none;fillColor=none;align=center;verticalAlign=middle;whiteSpace=wrap;rounded=0;fontStyle=1" parent="1" vertex="1">
          <mxGeometry x="160" y="180" width="100" height="50" as="geometry" />
        </mxCell>
        <mxCell id="vrEUEI0onQM0kqOxGJqF-27" value="MAC postprocessing unit" style="text;html=1;strokeColor=none;fillColor=none;align=center;verticalAlign=middle;whiteSpace=wrap;rounded=0;fontStyle=1" parent="1" vertex="1">
          <mxGeometry x="160" y="1120" width="100" height="50" as="geometry" />
        </mxCell>
        <mxCell id="vrEUEI0onQM0kqOxGJqF-51" style="edgeStyle=orthogonalEdgeStyle;rounded=0;orthogonalLoop=1;jettySize=auto;html=1;" parent="1" source="vrEUEI0onQM0kqOxGJqF-28" edge="1">
          <mxGeometry relative="1" as="geometry">
            <mxPoint x="475" y="1520" as="targetPoint" />
          </mxGeometry>
        </mxCell>
        <mxCell id="vrEUEI0onQM0kqOxGJqF-28" value="OFM FIFO&lt;br&gt;(depth=2)" style="rounded=1;whiteSpace=wrap;html=1;" parent="1" vertex="1">
          <mxGeometry x="415" y="1310" width="120" height="40" as="geometry" />
        </mxCell>
        <mxCell id="vrEUEI0onQM0kqOxGJqF-47" style="edgeStyle=orthogonalEdgeStyle;rounded=0;orthogonalLoop=1;jettySize=auto;html=1;entryX=0.66;entryY=0;entryDx=0;entryDy=0;entryPerimeter=0;" parent="1" source="vrEUEI0onQM0kqOxGJqF-18" target="vrEUEI0onQM0kqOxGJqF-22" edge="1">
          <mxGeometry relative="1" as="geometry" />
        </mxCell>
        <mxCell id="vrEUEI0onQM0kqOxGJqF-66" value="32" style="edgeLabel;html=1;align=center;verticalAlign=middle;resizable=0;points=[];" parent="vrEUEI0onQM0kqOxGJqF-47" vertex="1" connectable="0">
          <mxGeometry x="-0.6343" relative="1" as="geometry">
            <mxPoint as="offset" />
          </mxGeometry>
        </mxCell>
        <mxCell id="vrEUEI0onQM0kqOxGJqF-48" style="edgeStyle=orthogonalEdgeStyle;rounded=0;orthogonalLoop=1;jettySize=auto;html=1;entryX=0.119;entryY=0.013;entryDx=0;entryDy=0;entryPerimeter=0;" parent="1" source="vrEUEI0onQM0kqOxGJqF-16" target="vrEUEI0onQM0kqOxGJqF-22" edge="1">
          <mxGeometry relative="1" as="geometry">
            <Array as="points">
              <mxPoint x="270" y="1100" />
              <mxPoint x="296" y="1100" />
            </Array>
          </mxGeometry>
        </mxCell>
        <mxCell id="vrEUEI0onQM0kqOxGJqF-64" value="32" style="edgeLabel;html=1;align=center;verticalAlign=middle;resizable=0;points=[];" parent="vrEUEI0onQM0kqOxGJqF-48" vertex="1" connectable="0">
          <mxGeometry x="-0.694" y="-1" relative="1" as="geometry">
            <mxPoint as="offset" />
          </mxGeometry>
        </mxCell>
        <mxCell id="vrEUEI0onQM0kqOxGJqF-49" style="edgeStyle=orthogonalEdgeStyle;rounded=0;orthogonalLoop=1;jettySize=auto;html=1;entryX=0.36;entryY=-0.013;entryDx=0;entryDy=0;entryPerimeter=0;" parent="1" source="vrEUEI0onQM0kqOxGJqF-17" target="vrEUEI0onQM0kqOxGJqF-22" edge="1">
          <mxGeometry relative="1" as="geometry" />
        </mxCell>
        <mxCell id="vrEUEI0onQM0kqOxGJqF-65" value="32" style="edgeLabel;html=1;align=center;verticalAlign=middle;resizable=0;points=[];" parent="vrEUEI0onQM0kqOxGJqF-49" vertex="1" connectable="0">
          <mxGeometry x="-0.6475" relative="1" as="geometry">
            <mxPoint as="offset" />
          </mxGeometry>
        </mxCell>
        <mxCell id="vrEUEI0onQM0kqOxGJqF-53" value="MAC" style="text;html=1;strokeColor=none;fillColor=none;align=center;verticalAlign=middle;whiteSpace=wrap;rounded=0;fontSize=30;" parent="1" vertex="1">
          <mxGeometry x="175" y="120" width="70" height="40" as="geometry" />
        </mxCell>
        <mxCell id="vrEUEI0onQM0kqOxGJqF-58" style="edgeStyle=orthogonalEdgeStyle;rounded=0;orthogonalLoop=1;jettySize=auto;html=1;entryX=0;entryY=0.75;entryDx=0;entryDy=0;" parent="1" source="vrEUEI0onQM0kqOxGJqF-57" target="vrEUEI0onQM0kqOxGJqF-16" edge="1">
          <mxGeometry relative="1" as="geometry" />
        </mxCell>
        <mxCell id="vrEUEI0onQM0kqOxGJqF-57" value="Bias&lt;br&gt;64*32" style="text;html=1;strokeColor=none;fillColor=none;align=center;verticalAlign=middle;whiteSpace=wrap;rounded=0;" parent="1" vertex="1">
          <mxGeometry x="10" y="958" width="60" height="30" as="geometry" />
        </mxCell>
        <mxCell id="vrEUEI0onQM0kqOxGJqF-61" value="" style="rounded=0;whiteSpace=wrap;html=1;dashed=1;" parent="1" vertex="1">
          <mxGeometry x="800" width="30" height="30" as="geometry" />
        </mxCell>
        <mxCell id="vrEUEI0onQM0kqOxGJqF-62" value="OFM&lt;br style=&quot;font-size: 25px;&quot;&gt;(64*32bit)" style="text;html=1;strokeColor=none;fillColor=none;align=center;verticalAlign=middle;whiteSpace=wrap;rounded=0;fontSize=25;" parent="1" vertex="1">
          <mxGeometry x="410" y="1530" width="130" height="60" as="geometry" />
        </mxCell>
      </root>
    </mxGraphModel>
  </diagram>
  <diagram id="dkuCX28Wm5PPp7g03QgA" name="MAC_lane_draft">
    <mxGraphModel dx="1221" dy="725" grid="1" gridSize="10" guides="1" tooltips="1" connect="1" arrows="1" fold="1" page="1" pageScale="1" pageWidth="827" pageHeight="1169" math="0" shadow="0">
      <root>
        <mxCell id="0" />
        <mxCell id="1" parent="0" />
        <mxCell id="DDdfvMAxx2Xe-2EgMLhl-34" style="edgeStyle=orthogonalEdgeStyle;rounded=0;orthogonalLoop=1;jettySize=auto;html=1;exitX=0.5;exitY=1;exitDx=0;exitDy=0;entryX=0;entryY=0.5;entryDx=0;entryDy=0;fillColor=#dae8fc;strokeColor=#6c8ebf;" parent="1" source="DDdfvMAxx2Xe-2EgMLhl-7" target="DDdfvMAxx2Xe-2EgMLhl-28" edge="1">
          <mxGeometry relative="1" as="geometry" />
        </mxCell>
        <mxCell id="DDdfvMAxx2Xe-2EgMLhl-8" style="edgeStyle=orthogonalEdgeStyle;rounded=0;orthogonalLoop=1;jettySize=auto;html=1;exitX=0.25;exitY=1;exitDx=0;exitDy=0;entryX=0.25;entryY=0;entryDx=0;entryDy=0;fillColor=#dae8fc;strokeColor=#6c8ebf;" parent="1" source="0BULFkFL5rQqv1yCQXlq-1" target="DDdfvMAxx2Xe-2EgMLhl-7" edge="1">
          <mxGeometry relative="1" as="geometry" />
        </mxCell>
        <mxCell id="DDdfvMAxx2Xe-2EgMLhl-9" style="edgeStyle=orthogonalEdgeStyle;rounded=0;orthogonalLoop=1;jettySize=auto;html=1;exitX=0.25;exitY=1;exitDx=0;exitDy=0;entryX=0.5;entryY=0;entryDx=0;entryDy=0;fillColor=#dae8fc;strokeColor=#6c8ebf;" parent="1" source="0BULFkFL5rQqv1yCQXlq-1" target="DDdfvMAxx2Xe-2EgMLhl-6" edge="1">
          <mxGeometry relative="1" as="geometry" />
        </mxCell>
        <mxCell id="DDdfvMAxx2Xe-2EgMLhl-37" value="EXP" style="edgeLabel;html=1;align=center;verticalAlign=middle;resizable=0;points=[];" parent="DDdfvMAxx2Xe-2EgMLhl-9" vertex="1" connectable="0">
          <mxGeometry x="-0.5692" y="-1" relative="1" as="geometry">
            <mxPoint x="1" y="-37" as="offset" />
          </mxGeometry>
        </mxCell>
        <mxCell id="DDdfvMAxx2Xe-2EgMLhl-10" style="edgeStyle=orthogonalEdgeStyle;rounded=0;orthogonalLoop=1;jettySize=auto;html=1;exitX=0.75;exitY=1;exitDx=0;exitDy=0;entryX=0.5;entryY=0;entryDx=0;entryDy=0;fillColor=#f8cecc;strokeColor=#b85450;" parent="1" source="0BULFkFL5rQqv1yCQXlq-1" target="DDdfvMAxx2Xe-2EgMLhl-5" edge="1">
          <mxGeometry relative="1" as="geometry" />
        </mxCell>
        <mxCell id="DDdfvMAxx2Xe-2EgMLhl-38" value="MANT" style="edgeLabel;html=1;align=center;verticalAlign=middle;resizable=0;points=[];" parent="DDdfvMAxx2Xe-2EgMLhl-10" vertex="1" connectable="0">
          <mxGeometry x="-0.5936" relative="1" as="geometry">
            <mxPoint y="-36" as="offset" />
          </mxGeometry>
        </mxCell>
        <mxCell id="0BULFkFL5rQqv1yCQXlq-1" value="multiplier big (fake)" style="rounded=0;whiteSpace=wrap;html=1;" parent="1" vertex="1">
          <mxGeometry x="200" y="180" width="120" height="40" as="geometry" />
        </mxCell>
        <mxCell id="DDdfvMAxx2Xe-2EgMLhl-1" value="x 32" style="text;html=1;strokeColor=none;fillColor=none;align=center;verticalAlign=middle;whiteSpace=wrap;rounded=0;" parent="1" vertex="1">
          <mxGeometry x="320" y="205" width="50" height="30" as="geometry" />
        </mxCell>
        <mxCell id="DDdfvMAxx2Xe-2EgMLhl-17" style="edgeStyle=orthogonalEdgeStyle;rounded=0;orthogonalLoop=1;jettySize=auto;html=1;entryX=0.75;entryY=0;entryDx=0;entryDy=0;fillColor=#f8cecc;strokeColor=#b85450;" parent="1" source="DDdfvMAxx2Xe-2EgMLhl-5" target="DDdfvMAxx2Xe-2EgMLhl-13" edge="1">
          <mxGeometry relative="1" as="geometry" />
        </mxCell>
        <mxCell id="DDdfvMAxx2Xe-2EgMLhl-5" value="2s complement" style="rounded=0;whiteSpace=wrap;html=1;" parent="1" vertex="1">
          <mxGeometry x="285" y="410" width="120" height="40" as="geometry" />
        </mxCell>
        <mxCell id="DDdfvMAxx2Xe-2EgMLhl-16" style="edgeStyle=orthogonalEdgeStyle;rounded=0;orthogonalLoop=1;jettySize=auto;html=1;entryX=0.25;entryY=0;entryDx=0;entryDy=0;fillColor=#dae8fc;strokeColor=#6c8ebf;" parent="1" source="DDdfvMAxx2Xe-2EgMLhl-6" target="DDdfvMAxx2Xe-2EgMLhl-13" edge="1">
          <mxGeometry relative="1" as="geometry" />
        </mxCell>
        <mxCell id="DDdfvMAxx2Xe-2EgMLhl-6" value="subtractor" style="rounded=0;whiteSpace=wrap;html=1;" parent="1" vertex="1">
          <mxGeometry x="120" y="410" width="120" height="40" as="geometry" />
        </mxCell>
        <mxCell id="DDdfvMAxx2Xe-2EgMLhl-11" style="edgeStyle=orthogonalEdgeStyle;rounded=0;orthogonalLoop=1;jettySize=auto;html=1;entryX=0;entryY=0.5;entryDx=0;entryDy=0;fillColor=#dae8fc;strokeColor=#6c8ebf;" parent="1" source="DDdfvMAxx2Xe-2EgMLhl-7" target="DDdfvMAxx2Xe-2EgMLhl-6" edge="1">
          <mxGeometry relative="1" as="geometry" />
        </mxCell>
        <mxCell id="DDdfvMAxx2Xe-2EgMLhl-7" value="find max EXP" style="rounded=0;whiteSpace=wrap;html=1;" parent="1" vertex="1">
          <mxGeometry x="40" y="280" width="80" height="90" as="geometry" />
        </mxCell>
        <mxCell id="DDdfvMAxx2Xe-2EgMLhl-35" style="edgeStyle=orthogonalEdgeStyle;rounded=0;orthogonalLoop=1;jettySize=auto;html=1;entryX=0.25;entryY=0;entryDx=0;entryDy=0;" parent="1" source="DDdfvMAxx2Xe-2EgMLhl-13" target="DDdfvMAxx2Xe-2EgMLhl-20" edge="1">
          <mxGeometry relative="1" as="geometry" />
        </mxCell>
        <mxCell id="DDdfvMAxx2Xe-2EgMLhl-13" value="right shifter" style="rounded=0;whiteSpace=wrap;html=1;" parent="1" vertex="1">
          <mxGeometry x="200" y="520" width="120" height="40" as="geometry" />
        </mxCell>
        <mxCell id="DDdfvMAxx2Xe-2EgMLhl-14" value="x 32" style="text;html=1;strokeColor=none;fillColor=none;align=center;verticalAlign=middle;whiteSpace=wrap;rounded=0;" parent="1" vertex="1">
          <mxGeometry x="230" y="440" width="50" height="30" as="geometry" />
        </mxCell>
        <mxCell id="DDdfvMAxx2Xe-2EgMLhl-15" value="x 32" style="text;html=1;strokeColor=none;fillColor=none;align=center;verticalAlign=middle;whiteSpace=wrap;rounded=0;" parent="1" vertex="1">
          <mxGeometry x="400" y="440" width="50" height="30" as="geometry" />
        </mxCell>
        <mxCell id="DDdfvMAxx2Xe-2EgMLhl-18" value="x 32" style="text;html=1;strokeColor=none;fillColor=none;align=center;verticalAlign=middle;whiteSpace=wrap;rounded=0;" parent="1" vertex="1">
          <mxGeometry x="310" y="550" width="50" height="30" as="geometry" />
        </mxCell>
        <mxCell id="DDdfvMAxx2Xe-2EgMLhl-42" style="edgeStyle=orthogonalEdgeStyle;rounded=0;orthogonalLoop=1;jettySize=auto;html=1;" parent="1" source="DDdfvMAxx2Xe-2EgMLhl-20" target="DDdfvMAxx2Xe-2EgMLhl-41" edge="1">
          <mxGeometry relative="1" as="geometry" />
        </mxCell>
        <mxCell id="DDdfvMAxx2Xe-2EgMLhl-20" value="Wallace tree" style="rounded=0;whiteSpace=wrap;html=1;" parent="1" vertex="1">
          <mxGeometry x="240" y="650" width="400" height="90" as="geometry" />
        </mxCell>
        <mxCell id="DDdfvMAxx2Xe-2EgMLhl-21" style="edgeStyle=orthogonalEdgeStyle;rounded=0;orthogonalLoop=1;jettySize=auto;html=1;exitX=0.25;exitY=1;exitDx=0;exitDy=0;entryX=0.5;entryY=0;entryDx=0;entryDy=0;fillColor=#dae8fc;strokeColor=#6c8ebf;" parent="1" source="DDdfvMAxx2Xe-2EgMLhl-23" target="DDdfvMAxx2Xe-2EgMLhl-28" edge="1">
          <mxGeometry relative="1" as="geometry" />
        </mxCell>
        <mxCell id="DDdfvMAxx2Xe-2EgMLhl-22" style="edgeStyle=orthogonalEdgeStyle;rounded=0;orthogonalLoop=1;jettySize=auto;html=1;exitX=0.75;exitY=1;exitDx=0;exitDy=0;entryX=0.5;entryY=0;entryDx=0;entryDy=0;fillColor=#f8cecc;strokeColor=#b85450;" parent="1" source="DDdfvMAxx2Xe-2EgMLhl-23" target="DDdfvMAxx2Xe-2EgMLhl-26" edge="1">
          <mxGeometry relative="1" as="geometry" />
        </mxCell>
        <mxCell id="DDdfvMAxx2Xe-2EgMLhl-33" style="edgeStyle=orthogonalEdgeStyle;rounded=0;orthogonalLoop=1;jettySize=auto;html=1;exitX=0.25;exitY=1;exitDx=0;exitDy=0;entryX=0.75;entryY=0;entryDx=0;entryDy=0;fillColor=#dae8fc;strokeColor=#6c8ebf;" parent="1" source="DDdfvMAxx2Xe-2EgMLhl-23" target="DDdfvMAxx2Xe-2EgMLhl-7" edge="1">
          <mxGeometry relative="1" as="geometry" />
        </mxCell>
        <mxCell id="DDdfvMAxx2Xe-2EgMLhl-23" value="multiplier mid (fake)" style="rounded=0;whiteSpace=wrap;html=1;" parent="1" vertex="1">
          <mxGeometry x="560" y="180" width="120" height="40" as="geometry" />
        </mxCell>
        <mxCell id="DDdfvMAxx2Xe-2EgMLhl-24" value="x 32" style="text;html=1;strokeColor=none;fillColor=none;align=center;verticalAlign=middle;whiteSpace=wrap;rounded=0;" parent="1" vertex="1">
          <mxGeometry x="680" y="205" width="50" height="30" as="geometry" />
        </mxCell>
        <mxCell id="DDdfvMAxx2Xe-2EgMLhl-25" style="edgeStyle=orthogonalEdgeStyle;rounded=0;orthogonalLoop=1;jettySize=auto;html=1;entryX=0.75;entryY=0;entryDx=0;entryDy=0;fillColor=#f8cecc;strokeColor=#b85450;" parent="1" source="DDdfvMAxx2Xe-2EgMLhl-26" target="DDdfvMAxx2Xe-2EgMLhl-29" edge="1">
          <mxGeometry relative="1" as="geometry" />
        </mxCell>
        <mxCell id="DDdfvMAxx2Xe-2EgMLhl-26" value="2s complement" style="rounded=0;whiteSpace=wrap;html=1;" parent="1" vertex="1">
          <mxGeometry x="645" y="410" width="120" height="40" as="geometry" />
        </mxCell>
        <mxCell id="DDdfvMAxx2Xe-2EgMLhl-27" style="edgeStyle=orthogonalEdgeStyle;rounded=0;orthogonalLoop=1;jettySize=auto;html=1;entryX=0.25;entryY=0;entryDx=0;entryDy=0;fillColor=#dae8fc;strokeColor=#6c8ebf;" parent="1" source="DDdfvMAxx2Xe-2EgMLhl-28" target="DDdfvMAxx2Xe-2EgMLhl-29" edge="1">
          <mxGeometry relative="1" as="geometry" />
        </mxCell>
        <mxCell id="DDdfvMAxx2Xe-2EgMLhl-28" value="subtractor" style="rounded=0;whiteSpace=wrap;html=1;" parent="1" vertex="1">
          <mxGeometry x="480" y="410" width="120" height="40" as="geometry" />
        </mxCell>
        <mxCell id="DDdfvMAxx2Xe-2EgMLhl-36" style="edgeStyle=orthogonalEdgeStyle;rounded=0;orthogonalLoop=1;jettySize=auto;html=1;entryX=0.75;entryY=0;entryDx=0;entryDy=0;" parent="1" source="DDdfvMAxx2Xe-2EgMLhl-29" target="DDdfvMAxx2Xe-2EgMLhl-20" edge="1">
          <mxGeometry relative="1" as="geometry" />
        </mxCell>
        <mxCell id="DDdfvMAxx2Xe-2EgMLhl-29" value="right shifter" style="rounded=0;whiteSpace=wrap;html=1;" parent="1" vertex="1">
          <mxGeometry x="560" y="520" width="120" height="40" as="geometry" />
        </mxCell>
        <mxCell id="DDdfvMAxx2Xe-2EgMLhl-30" value="x 32" style="text;html=1;strokeColor=none;fillColor=none;align=center;verticalAlign=middle;whiteSpace=wrap;rounded=0;" parent="1" vertex="1">
          <mxGeometry x="590" y="440" width="50" height="30" as="geometry" />
        </mxCell>
        <mxCell id="DDdfvMAxx2Xe-2EgMLhl-31" value="x 32" style="text;html=1;strokeColor=none;fillColor=none;align=center;verticalAlign=middle;whiteSpace=wrap;rounded=0;" parent="1" vertex="1">
          <mxGeometry x="760" y="440" width="50" height="30" as="geometry" />
        </mxCell>
        <mxCell id="DDdfvMAxx2Xe-2EgMLhl-32" value="x 32" style="text;html=1;strokeColor=none;fillColor=none;align=center;verticalAlign=middle;whiteSpace=wrap;rounded=0;" parent="1" vertex="1">
          <mxGeometry x="670" y="550" width="50" height="30" as="geometry" />
        </mxCell>
        <mxCell id="DDdfvMAxx2Xe-2EgMLhl-39" value="EXP" style="edgeLabel;html=1;align=center;verticalAlign=middle;resizable=0;points=[];" parent="1" vertex="1" connectable="0">
          <mxGeometry x="590" y="235.6699999999999" as="geometry" />
        </mxCell>
        <mxCell id="DDdfvMAxx2Xe-2EgMLhl-40" value="MANT" style="edgeLabel;html=1;align=center;verticalAlign=middle;resizable=0;points=[];" parent="1" vertex="1" connectable="0">
          <mxGeometry x="650" y="235.00333333333327" as="geometry" />
        </mxCell>
        <mxCell id="DDdfvMAxx2Xe-2EgMLhl-44" style="edgeStyle=orthogonalEdgeStyle;rounded=0;orthogonalLoop=1;jettySize=auto;html=1;entryX=0.5;entryY=0;entryDx=0;entryDy=0;" parent="1" source="DDdfvMAxx2Xe-2EgMLhl-41" target="DDdfvMAxx2Xe-2EgMLhl-43" edge="1">
          <mxGeometry relative="1" as="geometry" />
        </mxCell>
        <mxCell id="DDdfvMAxx2Xe-2EgMLhl-41" value="FP32 converter" style="rounded=1;whiteSpace=wrap;html=1;" parent="1" vertex="1">
          <mxGeometry x="380" y="800" width="120" height="60" as="geometry" />
        </mxCell>
        <mxCell id="DDdfvMAxx2Xe-2EgMLhl-45" style="edgeStyle=orthogonalEdgeStyle;rounded=0;orthogonalLoop=1;jettySize=auto;html=1;" parent="1" source="DDdfvMAxx2Xe-2EgMLhl-43" edge="1">
          <mxGeometry relative="1" as="geometry">
            <mxPoint x="440" y="1120" as="targetPoint" />
          </mxGeometry>
        </mxCell>
        <mxCell id="DDdfvMAxx2Xe-2EgMLhl-43" value="Psum accumulator" style="rounded=1;whiteSpace=wrap;html=1;" parent="1" vertex="1">
          <mxGeometry x="320" y="910" width="240" height="120" as="geometry" />
        </mxCell>
        <mxCell id="DDdfvMAxx2Xe-2EgMLhl-48" style="edgeStyle=orthogonalEdgeStyle;rounded=0;orthogonalLoop=1;jettySize=auto;html=1;entryX=0.25;entryY=0;entryDx=0;entryDy=0;fillColor=#ffe6cc;strokeColor=#d79b00;" parent="1" source="DDdfvMAxx2Xe-2EgMLhl-46" target="0BULFkFL5rQqv1yCQXlq-1" edge="1">
          <mxGeometry relative="1" as="geometry">
            <Array as="points">
              <mxPoint x="403" y="120" />
              <mxPoint x="230" y="120" />
            </Array>
          </mxGeometry>
        </mxCell>
        <mxCell id="DDdfvMAxx2Xe-2EgMLhl-49" style="edgeStyle=orthogonalEdgeStyle;rounded=0;orthogonalLoop=1;jettySize=auto;html=1;entryX=0.25;entryY=0;entryDx=0;entryDy=0;fillColor=#ffe6cc;strokeColor=#d79b00;" parent="1" source="DDdfvMAxx2Xe-2EgMLhl-46" target="DDdfvMAxx2Xe-2EgMLhl-23" edge="1">
          <mxGeometry relative="1" as="geometry">
            <Array as="points">
              <mxPoint x="403" y="120" />
              <mxPoint x="590" y="120" />
            </Array>
          </mxGeometry>
        </mxCell>
        <mxCell id="DDdfvMAxx2Xe-2EgMLhl-46" value="IFM" style="text;html=1;strokeColor=none;fillColor=none;align=center;verticalAlign=middle;whiteSpace=wrap;rounded=0;" parent="1" vertex="1">
          <mxGeometry x="372.5" y="40" width="60" height="30" as="geometry" />
        </mxCell>
        <mxCell id="DDdfvMAxx2Xe-2EgMLhl-50" style="edgeStyle=orthogonalEdgeStyle;rounded=0;orthogonalLoop=1;jettySize=auto;html=1;entryX=0.75;entryY=0;entryDx=0;entryDy=0;fillColor=#d5e8d4;strokeColor=#82b366;" parent="1" source="DDdfvMAxx2Xe-2EgMLhl-47" target="0BULFkFL5rQqv1yCQXlq-1" edge="1">
          <mxGeometry relative="1" as="geometry">
            <Array as="points">
              <mxPoint x="478" y="140" />
              <mxPoint x="290" y="140" />
            </Array>
          </mxGeometry>
        </mxCell>
        <mxCell id="DDdfvMAxx2Xe-2EgMLhl-51" style="edgeStyle=orthogonalEdgeStyle;rounded=0;orthogonalLoop=1;jettySize=auto;html=1;exitX=0.5;exitY=1;exitDx=0;exitDy=0;entryX=0.75;entryY=0;entryDx=0;entryDy=0;fillColor=#d5e8d4;strokeColor=#82b366;" parent="1" source="DDdfvMAxx2Xe-2EgMLhl-47" target="DDdfvMAxx2Xe-2EgMLhl-23" edge="1">
          <mxGeometry relative="1" as="geometry">
            <Array as="points">
              <mxPoint x="478" y="140" />
              <mxPoint x="650" y="140" />
            </Array>
          </mxGeometry>
        </mxCell>
        <mxCell id="DDdfvMAxx2Xe-2EgMLhl-47" value="WFM" style="text;html=1;strokeColor=none;fillColor=none;align=center;verticalAlign=middle;whiteSpace=wrap;rounded=0;" parent="1" vertex="1">
          <mxGeometry x="447.5" y="40" width="60" height="30" as="geometry" />
        </mxCell>
        <mxCell id="DDdfvMAxx2Xe-2EgMLhl-53" style="edgeStyle=orthogonalEdgeStyle;rounded=0;orthogonalLoop=1;jettySize=auto;html=1;entryX=0;entryY=0.5;entryDx=0;entryDy=0;" parent="1" source="DDdfvMAxx2Xe-2EgMLhl-52" target="DDdfvMAxx2Xe-2EgMLhl-43" edge="1">
          <mxGeometry relative="1" as="geometry" />
        </mxCell>
        <mxCell id="DDdfvMAxx2Xe-2EgMLhl-52" value="Bias" style="text;html=1;strokeColor=none;fillColor=none;align=center;verticalAlign=middle;whiteSpace=wrap;rounded=0;" parent="1" vertex="1">
          <mxGeometry x="90" y="955" width="60" height="30" as="geometry" />
        </mxCell>
      </root>
    </mxGraphModel>
  </diagram>
  <diagram id="0OAdHIX6xV6pMHtaG4pR" name="Psum accumulator">
    <mxGraphModel dx="1821" dy="835" grid="1" gridSize="10" guides="1" tooltips="1" connect="1" arrows="1" fold="1" page="0" pageScale="1" pageWidth="827" pageHeight="1169" math="0" shadow="0">
      <root>
        <mxCell id="0" />
        <mxCell id="1" parent="0" />
        <mxCell id="Q96y-DbWx-g9CKVbTzPW-15" value="" style="rounded=0;whiteSpace=wrap;html=1;fillColor=none;" vertex="1" parent="1">
          <mxGeometry x="-40" y="160" width="600" height="490" as="geometry" />
        </mxCell>
        <mxCell id="Q96y-DbWx-g9CKVbTzPW-4" style="edgeStyle=orthogonalEdgeStyle;rounded=0;orthogonalLoop=1;jettySize=auto;html=1;entryX=0.5;entryY=0;entryDx=0;entryDy=0;" edge="1" parent="1" source="Q96y-DbWx-g9CKVbTzPW-2" target="Q96y-DbWx-g9CKVbTzPW-3">
          <mxGeometry relative="1" as="geometry" />
        </mxCell>
        <mxCell id="Q96y-DbWx-g9CKVbTzPW-6" style="edgeStyle=orthogonalEdgeStyle;rounded=0;orthogonalLoop=1;jettySize=auto;html=1;entryX=0.5;entryY=0;entryDx=0;entryDy=0;" edge="1" parent="1" source="Q96y-DbWx-g9CKVbTzPW-2" target="Q96y-DbWx-g9CKVbTzPW-5">
          <mxGeometry relative="1" as="geometry" />
        </mxCell>
        <mxCell id="Q96y-DbWx-g9CKVbTzPW-14" style="edgeStyle=orthogonalEdgeStyle;rounded=0;orthogonalLoop=1;jettySize=auto;html=1;exitX=0.75;exitY=0;exitDx=0;exitDy=0;entryX=0.75;entryY=0;entryDx=0;entryDy=0;" edge="1" parent="1" target="Q96y-DbWx-g9CKVbTzPW-2">
          <mxGeometry relative="1" as="geometry">
            <mxPoint x="410" y="80" as="sourcePoint" />
          </mxGeometry>
        </mxCell>
        <mxCell id="Q96y-DbWx-g9CKVbTzPW-18" value="Psum" style="edgeLabel;html=1;align=center;verticalAlign=middle;resizable=0;points=[];fontSize=15;" vertex="1" connectable="0" parent="Q96y-DbWx-g9CKVbTzPW-14">
          <mxGeometry x="-0.601" relative="1" as="geometry">
            <mxPoint as="offset" />
          </mxGeometry>
        </mxCell>
        <mxCell id="Q96y-DbWx-g9CKVbTzPW-2" value="FP32 adder" style="rounded=1;whiteSpace=wrap;html=1;" vertex="1" parent="1">
          <mxGeometry x="320" y="280" width="120" height="80" as="geometry" />
        </mxCell>
        <mxCell id="Q96y-DbWx-g9CKVbTzPW-12" style="edgeStyle=orthogonalEdgeStyle;rounded=0;orthogonalLoop=1;jettySize=auto;html=1;entryX=0.75;entryY=1;entryDx=0;entryDy=0;" edge="1" parent="1" source="Q96y-DbWx-g9CKVbTzPW-3" target="Q96y-DbWx-g9CKVbTzPW-10">
          <mxGeometry relative="1" as="geometry">
            <Array as="points">
              <mxPoint x="300" y="560" />
              <mxPoint x="220" y="560" />
            </Array>
          </mxGeometry>
        </mxCell>
        <mxCell id="Q96y-DbWx-g9CKVbTzPW-3" value="Psum FIFO&lt;br&gt;(WIDTH = 32&lt;br&gt;DEPTH = 64)" style="rounded=1;whiteSpace=wrap;html=1;" vertex="1" parent="1">
          <mxGeometry x="240" y="440" width="120" height="80" as="geometry" />
        </mxCell>
        <mxCell id="Q96y-DbWx-g9CKVbTzPW-8" style="edgeStyle=orthogonalEdgeStyle;rounded=0;orthogonalLoop=1;jettySize=auto;html=1;" edge="1" parent="1" source="Q96y-DbWx-g9CKVbTzPW-5">
          <mxGeometry relative="1" as="geometry">
            <mxPoint x="380" y="720" as="targetPoint" />
            <Array as="points">
              <mxPoint x="460" y="550" />
              <mxPoint x="380" y="550" />
            </Array>
          </mxGeometry>
        </mxCell>
        <mxCell id="Q96y-DbWx-g9CKVbTzPW-19" value="Output" style="edgeLabel;html=1;align=center;verticalAlign=middle;resizable=0;points=[];fontSize=15;" vertex="1" connectable="0" parent="Q96y-DbWx-g9CKVbTzPW-8">
          <mxGeometry x="0.7179" y="-1" relative="1" as="geometry">
            <mxPoint as="offset" />
          </mxGeometry>
        </mxCell>
        <mxCell id="Q96y-DbWx-g9CKVbTzPW-5" value="Output FIFO&lt;br&gt;(WIDTH = 32&lt;br&gt;DEPTH = 2)" style="rounded=1;whiteSpace=wrap;html=1;" vertex="1" parent="1">
          <mxGeometry x="400" y="440" width="120" height="80" as="geometry" />
        </mxCell>
        <mxCell id="Q96y-DbWx-g9CKVbTzPW-11" style="edgeStyle=orthogonalEdgeStyle;rounded=0;orthogonalLoop=1;jettySize=auto;html=1;entryX=0.25;entryY=1;entryDx=0;entryDy=0;" edge="1" parent="1" source="Q96y-DbWx-g9CKVbTzPW-9" target="Q96y-DbWx-g9CKVbTzPW-10">
          <mxGeometry relative="1" as="geometry">
            <Array as="points">
              <mxPoint x="60" y="480" />
              <mxPoint x="160" y="480" />
            </Array>
          </mxGeometry>
        </mxCell>
        <mxCell id="Q96y-DbWx-g9CKVbTzPW-16" style="edgeStyle=orthogonalEdgeStyle;rounded=0;orthogonalLoop=1;jettySize=auto;html=1;exitX=0.5;exitY=0;exitDx=0;exitDy=0;entryX=0.5;entryY=0;entryDx=0;entryDy=0;" edge="1" parent="1" target="Q96y-DbWx-g9CKVbTzPW-9">
          <mxGeometry relative="1" as="geometry">
            <mxPoint x="60" y="80" as="sourcePoint" />
          </mxGeometry>
        </mxCell>
        <mxCell id="Q96y-DbWx-g9CKVbTzPW-17" value="Bias" style="edgeLabel;html=1;align=center;verticalAlign=middle;resizable=0;points=[];fontSize=15;" vertex="1" connectable="0" parent="Q96y-DbWx-g9CKVbTzPW-16">
          <mxGeometry x="-0.6951" relative="1" as="geometry">
            <mxPoint as="offset" />
          </mxGeometry>
        </mxCell>
        <mxCell id="Q96y-DbWx-g9CKVbTzPW-9" value="Bias FIFO&lt;br&gt;(WIDTH = 32&lt;br&gt;DEPTH = 2)" style="rounded=1;whiteSpace=wrap;html=1;" vertex="1" parent="1">
          <mxGeometry y="340" width="120" height="80" as="geometry" />
        </mxCell>
        <mxCell id="Q96y-DbWx-g9CKVbTzPW-13" style="edgeStyle=orthogonalEdgeStyle;rounded=0;orthogonalLoop=1;jettySize=auto;html=1;entryX=0.25;entryY=0;entryDx=0;entryDy=0;" edge="1" parent="1" source="Q96y-DbWx-g9CKVbTzPW-10" target="Q96y-DbWx-g9CKVbTzPW-2">
          <mxGeometry relative="1" as="geometry">
            <Array as="points">
              <mxPoint x="190" y="200" />
              <mxPoint x="350" y="200" />
            </Array>
          </mxGeometry>
        </mxCell>
        <mxCell id="Q96y-DbWx-g9CKVbTzPW-10" value="" style="shape=trapezoid;perimeter=trapezoidPerimeter;whiteSpace=wrap;html=1;fixedSize=1;" vertex="1" parent="1">
          <mxGeometry x="130" y="290" width="120" height="30" as="geometry" />
        </mxCell>
        <mxCell id="Q96y-DbWx-g9CKVbTzPW-20" value="Psum accumulator" style="text;html=1;strokeColor=none;fillColor=none;align=center;verticalAlign=middle;whiteSpace=wrap;rounded=0;fontSize=15;" vertex="1" parent="1">
          <mxGeometry x="-40" y="160" width="90" height="50" as="geometry" />
        </mxCell>
        <mxCell id="2V7To93PHXxDOU3YOfa5-2" style="edgeStyle=orthogonalEdgeStyle;rounded=0;orthogonalLoop=1;jettySize=auto;html=1;entryX=0;entryY=0.5;entryDx=0;entryDy=0;" edge="1" parent="1" source="2V7To93PHXxDOU3YOfa5-1" target="Q96y-DbWx-g9CKVbTzPW-10">
          <mxGeometry relative="1" as="geometry">
            <Array as="points">
              <mxPoint x="100" y="305" />
            </Array>
          </mxGeometry>
        </mxCell>
        <mxCell id="2V7To93PHXxDOU3YOfa5-1" value="state" style="rounded=1;whiteSpace=wrap;html=1;" vertex="1" parent="1">
          <mxGeometry x="80" y="260" width="40" height="20" as="geometry" />
        </mxCell>
      </root>
    </mxGraphModel>
  </diagram>
  <diagram id="vP4EmoBYKfWNyB33UsJx" name="NPU">
    <mxGraphModel dx="1221" dy="725" grid="1" gridSize="10" guides="1" tooltips="1" connect="1" arrows="1" fold="1" page="0" pageScale="1" pageWidth="827" pageHeight="1169" math="0" shadow="0">
      <root>
        <mxCell id="0" />
        <mxCell id="1" parent="0" />
        <mxCell id="FoYdPdU2EESTLow4HmA2-26" value="" style="rounded=0;whiteSpace=wrap;html=1;fillColor=none;" parent="1" vertex="1">
          <mxGeometry x="170" y="130" width="500" height="500" as="geometry" />
        </mxCell>
        <mxCell id="FoYdPdU2EESTLow4HmA2-11" style="edgeStyle=orthogonalEdgeStyle;rounded=0;orthogonalLoop=1;jettySize=auto;html=1;exitX=0.25;exitY=1;exitDx=0;exitDy=0;entryX=0.584;entryY=0.003;entryDx=0;entryDy=0;entryPerimeter=0;" parent="1" source="FoYdPdU2EESTLow4HmA2-1" target="FoYdPdU2EESTLow4HmA2-2" edge="1">
          <mxGeometry relative="1" as="geometry">
            <Array as="points">
              <mxPoint x="390" y="320" />
              <mxPoint x="270" y="320" />
              <mxPoint x="270" y="360" />
            </Array>
          </mxGeometry>
        </mxCell>
        <mxCell id="FoYdPdU2EESTLow4HmA2-13" style="edgeStyle=orthogonalEdgeStyle;rounded=0;orthogonalLoop=1;jettySize=auto;html=1;entryX=0.5;entryY=0;entryDx=0;entryDy=0;" parent="1" edge="1">
          <mxGeometry relative="1" as="geometry">
            <mxPoint x="425" y="280" as="sourcePoint" />
            <mxPoint x="425" y="360" as="targetPoint" />
          </mxGeometry>
        </mxCell>
        <mxCell id="FoYdPdU2EESTLow4HmA2-14" style="edgeStyle=orthogonalEdgeStyle;rounded=0;orthogonalLoop=1;jettySize=auto;html=1;exitX=0.5;exitY=0;exitDx=0;exitDy=0;" parent="1" edge="1">
          <mxGeometry relative="1" as="geometry">
            <mxPoint x="415" y="360" as="sourcePoint" />
            <mxPoint x="415" y="280" as="targetPoint" />
          </mxGeometry>
        </mxCell>
        <mxCell id="FoYdPdU2EESTLow4HmA2-15" style="edgeStyle=orthogonalEdgeStyle;rounded=0;orthogonalLoop=1;jettySize=auto;html=1;exitX=0.75;exitY=1;exitDx=0;exitDy=0;entryX=0.548;entryY=-0.001;entryDx=0;entryDy=0;entryPerimeter=0;" parent="1" source="FoYdPdU2EESTLow4HmA2-1" target="FoYdPdU2EESTLow4HmA2-4" edge="1">
          <mxGeometry relative="1" as="geometry">
            <Array as="points">
              <mxPoint x="460" y="280" />
              <mxPoint x="460" y="320" />
              <mxPoint x="586" y="320" />
            </Array>
          </mxGeometry>
        </mxCell>
        <mxCell id="FoYdPdU2EESTLow4HmA2-1" value="Core Processor" style="rounded=1;whiteSpace=wrap;html=1;" parent="1" vertex="1">
          <mxGeometry x="360" y="200" width="120" height="80" as="geometry" />
        </mxCell>
        <mxCell id="FoYdPdU2EESTLow4HmA2-2" value="TX" style="rounded=1;whiteSpace=wrap;html=1;" parent="1" vertex="1">
          <mxGeometry x="200" y="360" width="120" height="80" as="geometry" />
        </mxCell>
        <mxCell id="FoYdPdU2EESTLow4HmA2-3" value="VX" style="rounded=1;whiteSpace=wrap;html=1;" parent="1" vertex="1">
          <mxGeometry x="360" y="360" width="120" height="80" as="geometry" />
        </mxCell>
        <mxCell id="FoYdPdU2EESTLow4HmA2-4" value="Reshaper" style="rounded=1;whiteSpace=wrap;html=1;" parent="1" vertex="1">
          <mxGeometry x="520" y="360" width="120" height="80" as="geometry" />
        </mxCell>
        <mxCell id="FoYdPdU2EESTLow4HmA2-5" value="SRAM (model)" style="rounded=1;whiteSpace=wrap;html=1;" parent="1" vertex="1">
          <mxGeometry x="200" y="520" width="440" height="80" as="geometry" />
        </mxCell>
        <mxCell id="FoYdPdU2EESTLow4HmA2-7" value="" style="endArrow=classic;html=1;rounded=0;" parent="1" edge="1">
          <mxGeometry width="50" height="50" relative="1" as="geometry">
            <mxPoint x="390" y="200" as="sourcePoint" />
            <mxPoint x="390" y="70" as="targetPoint" />
          </mxGeometry>
        </mxCell>
        <mxCell id="FoYdPdU2EESTLow4HmA2-10" value="done" style="edgeLabel;html=1;align=center;verticalAlign=middle;resizable=0;points=[];" parent="FoYdPdU2EESTLow4HmA2-7" vertex="1" connectable="0">
          <mxGeometry x="0.0003" relative="1" as="geometry">
            <mxPoint y="-25" as="offset" />
          </mxGeometry>
        </mxCell>
        <mxCell id="FoYdPdU2EESTLow4HmA2-8" value="" style="endArrow=classic;html=1;rounded=0;" parent="1" edge="1">
          <mxGeometry width="50" height="50" relative="1" as="geometry">
            <mxPoint x="450" y="70" as="sourcePoint" />
            <mxPoint x="450" y="200" as="targetPoint" />
          </mxGeometry>
        </mxCell>
        <mxCell id="FoYdPdU2EESTLow4HmA2-9" value="instruction" style="edgeLabel;html=1;align=center;verticalAlign=middle;resizable=0;points=[];" parent="FoYdPdU2EESTLow4HmA2-8" vertex="1" connectable="0">
          <mxGeometry relative="1" as="geometry">
            <mxPoint y="-30" as="offset" />
          </mxGeometry>
        </mxCell>
        <mxCell id="FoYdPdU2EESTLow4HmA2-12" style="edgeStyle=orthogonalEdgeStyle;rounded=0;orthogonalLoop=1;jettySize=auto;html=1;exitX=0.25;exitY=0;exitDx=0;exitDy=0;entryX=0.167;entryY=1.008;entryDx=0;entryDy=0;entryPerimeter=0;" parent="1" source="FoYdPdU2EESTLow4HmA2-2" target="FoYdPdU2EESTLow4HmA2-1" edge="1">
          <mxGeometry relative="1" as="geometry">
            <Array as="points">
              <mxPoint x="260" y="360" />
              <mxPoint x="260" y="310" />
              <mxPoint x="380" y="310" />
            </Array>
          </mxGeometry>
        </mxCell>
        <mxCell id="FoYdPdU2EESTLow4HmA2-17" style="edgeStyle=orthogonalEdgeStyle;rounded=0;orthogonalLoop=1;jettySize=auto;html=1;exitX=0.46;exitY=0;exitDx=0;exitDy=0;entryX=0.747;entryY=1.022;entryDx=0;entryDy=0;entryPerimeter=0;exitPerimeter=0;" parent="1" source="FoYdPdU2EESTLow4HmA2-4" target="FoYdPdU2EESTLow4HmA2-1" edge="1">
          <mxGeometry relative="1" as="geometry">
            <Array as="points">
              <mxPoint x="575" y="330" />
              <mxPoint x="450" y="330" />
            </Array>
          </mxGeometry>
        </mxCell>
        <mxCell id="FoYdPdU2EESTLow4HmA2-19" style="edgeStyle=orthogonalEdgeStyle;rounded=0;orthogonalLoop=1;jettySize=auto;html=1;entryX=0.147;entryY=0;entryDx=0;entryDy=0;entryPerimeter=0;exitX=0.54;exitY=1.004;exitDx=0;exitDy=0;exitPerimeter=0;" parent="1" source="FoYdPdU2EESTLow4HmA2-2" target="FoYdPdU2EESTLow4HmA2-5" edge="1">
          <mxGeometry relative="1" as="geometry">
            <mxPoint x="264" y="440" as="sourcePoint" />
            <mxPoint x="263.84" y="520" as="targetPoint" />
          </mxGeometry>
        </mxCell>
        <mxCell id="FoYdPdU2EESTLow4HmA2-20" style="edgeStyle=orthogonalEdgeStyle;rounded=0;orthogonalLoop=1;jettySize=auto;html=1;exitX=0.126;exitY=0.003;exitDx=0;exitDy=0;exitPerimeter=0;entryX=0.461;entryY=1.007;entryDx=0;entryDy=0;entryPerimeter=0;" parent="1" source="FoYdPdU2EESTLow4HmA2-5" target="FoYdPdU2EESTLow4HmA2-2" edge="1">
          <mxGeometry relative="1" as="geometry">
            <mxPoint x="254.83999999999997" y="520.44" as="sourcePoint" />
            <mxPoint x="255" y="440" as="targetPoint" />
          </mxGeometry>
        </mxCell>
        <mxCell id="FoYdPdU2EESTLow4HmA2-21" style="edgeStyle=orthogonalEdgeStyle;rounded=0;orthogonalLoop=1;jettySize=auto;html=1;entryX=0.147;entryY=0;entryDx=0;entryDy=0;entryPerimeter=0;exitX=0.54;exitY=1.004;exitDx=0;exitDy=0;exitPerimeter=0;" parent="1" edge="1">
          <mxGeometry relative="1" as="geometry">
            <mxPoint x="424.83000000000004" y="440" as="sourcePoint" />
            <mxPoint x="424.83000000000004" y="520" as="targetPoint" />
          </mxGeometry>
        </mxCell>
        <mxCell id="FoYdPdU2EESTLow4HmA2-22" style="edgeStyle=orthogonalEdgeStyle;rounded=0;orthogonalLoop=1;jettySize=auto;html=1;exitX=0.126;exitY=0.003;exitDx=0;exitDy=0;exitPerimeter=0;entryX=0.461;entryY=1.007;entryDx=0;entryDy=0;entryPerimeter=0;" parent="1" edge="1">
          <mxGeometry relative="1" as="geometry">
            <mxPoint x="414.83000000000004" y="520" as="sourcePoint" />
            <mxPoint x="414.83000000000004" y="441" as="targetPoint" />
          </mxGeometry>
        </mxCell>
        <mxCell id="FoYdPdU2EESTLow4HmA2-23" style="edgeStyle=orthogonalEdgeStyle;rounded=0;orthogonalLoop=1;jettySize=auto;html=1;entryX=0.147;entryY=0;entryDx=0;entryDy=0;entryPerimeter=0;exitX=0.54;exitY=1.004;exitDx=0;exitDy=0;exitPerimeter=0;" parent="1" edge="1">
          <mxGeometry relative="1" as="geometry">
            <mxPoint x="584.8299999999999" y="440" as="sourcePoint" />
            <mxPoint x="584.8299999999999" y="520" as="targetPoint" />
          </mxGeometry>
        </mxCell>
        <mxCell id="FoYdPdU2EESTLow4HmA2-24" style="edgeStyle=orthogonalEdgeStyle;rounded=0;orthogonalLoop=1;jettySize=auto;html=1;exitX=0.126;exitY=0.003;exitDx=0;exitDy=0;exitPerimeter=0;entryX=0.461;entryY=1.007;entryDx=0;entryDy=0;entryPerimeter=0;" parent="1" edge="1">
          <mxGeometry relative="1" as="geometry">
            <mxPoint x="574.8299999999999" y="520" as="sourcePoint" />
            <mxPoint x="574.8299999999999" y="441" as="targetPoint" />
          </mxGeometry>
        </mxCell>
        <mxCell id="FoYdPdU2EESTLow4HmA2-27" value="NPU" style="text;html=1;strokeColor=none;fillColor=none;align=center;verticalAlign=middle;whiteSpace=wrap;rounded=0;" parent="1" vertex="1">
          <mxGeometry x="170" y="130" width="60" height="30" as="geometry" />
        </mxCell>
      </root>
    </mxGraphModel>
  </diagram>
  <diagram id="3EjRzrYdPuTPjLzZjA8e" name="TX">
    <mxGraphModel dx="162" dy="495" grid="1" gridSize="10" guides="1" tooltips="1" connect="1" arrows="1" fold="1" page="0" pageScale="1" pageWidth="827" pageHeight="1169" math="0" shadow="0">
      <root>
        <mxCell id="0" />
        <mxCell id="1" parent="0" />
        <mxCell id="hTNN_E_6Pw_U0okJJQiw-23" style="edgeStyle=orthogonalEdgeStyle;rounded=0;orthogonalLoop=1;jettySize=auto;html=1;entryX=0.997;entryY=0.23;entryDx=0;entryDy=0;entryPerimeter=0;fillColor=#dae8fc;strokeColor=#6c8ebf;" edge="1" parent="1" source="hTNN_E_6Pw_U0okJJQiw-17" target="hTNN_E_6Pw_U0okJJQiw-5">
          <mxGeometry relative="1" as="geometry">
            <mxPoint x="140" y="180" as="targetPoint" />
            <Array as="points">
              <mxPoint x="410" y="180" />
            </Array>
          </mxGeometry>
        </mxCell>
        <mxCell id="hTNN_E_6Pw_U0okJJQiw-21" style="edgeStyle=orthogonalEdgeStyle;rounded=0;orthogonalLoop=1;jettySize=auto;html=1;entryX=1;entryY=0.5;entryDx=0;entryDy=0;fillColor=#dae8fc;strokeColor=#6c8ebf;" edge="1" parent="1" source="hTNN_E_6Pw_U0okJJQiw-17" target="hTNN_E_6Pw_U0okJJQiw-4">
          <mxGeometry relative="1" as="geometry">
            <Array as="points">
              <mxPoint x="410" y="105" />
            </Array>
          </mxGeometry>
        </mxCell>
        <mxCell id="hTNN_E_6Pw_U0okJJQiw-20" style="edgeStyle=orthogonalEdgeStyle;rounded=0;orthogonalLoop=1;jettySize=auto;html=1;entryX=1;entryY=0.5;entryDx=0;entryDy=0;fillColor=#dae8fc;strokeColor=#6c8ebf;" edge="1" parent="1" source="hTNN_E_6Pw_U0okJJQiw-17" target="hTNN_E_6Pw_U0okJJQiw-3">
          <mxGeometry relative="1" as="geometry">
            <Array as="points">
              <mxPoint x="410" y="105" />
            </Array>
          </mxGeometry>
        </mxCell>
        <mxCell id="hTNN_E_6Pw_U0okJJQiw-19" style="edgeStyle=orthogonalEdgeStyle;rounded=0;orthogonalLoop=1;jettySize=auto;html=1;entryX=1;entryY=0.5;entryDx=0;entryDy=0;fillColor=#dae8fc;strokeColor=#6c8ebf;" edge="1" parent="1" source="hTNN_E_6Pw_U0okJJQiw-17" target="hTNN_E_6Pw_U0okJJQiw-2">
          <mxGeometry relative="1" as="geometry">
            <Array as="points">
              <mxPoint x="410" y="105" />
            </Array>
          </mxGeometry>
        </mxCell>
        <mxCell id="hTNN_E_6Pw_U0okJJQiw-14" style="edgeStyle=orthogonalEdgeStyle;rounded=0;orthogonalLoop=1;jettySize=auto;html=1;entryX=1;entryY=0.5;entryDx=0;entryDy=0;fillColor=#f8cecc;strokeColor=#b85450;" edge="1" parent="1" source="hTNN_E_6Pw_U0okJJQiw-1" target="hTNN_E_6Pw_U0okJJQiw-5">
          <mxGeometry relative="1" as="geometry" />
        </mxCell>
        <mxCell id="hTNN_E_6Pw_U0okJJQiw-1" value="MAC" style="rounded=1;whiteSpace=wrap;html=1;" vertex="1" parent="1">
          <mxGeometry x="160" y="150" width="180" height="130" as="geometry" />
        </mxCell>
        <mxCell id="hTNN_E_6Pw_U0okJJQiw-2" value="WFM&lt;br&gt;Feeder" style="rounded=1;whiteSpace=wrap;html=1;" vertex="1" parent="1">
          <mxGeometry x="230" y="80" width="50" height="50" as="geometry" />
        </mxCell>
        <mxCell id="hTNN_E_6Pw_U0okJJQiw-3" value="IFM&lt;br&gt;Feeder" style="rounded=1;whiteSpace=wrap;html=1;" vertex="1" parent="1">
          <mxGeometry x="170" y="80" width="50" height="50" as="geometry" />
        </mxCell>
        <mxCell id="hTNN_E_6Pw_U0okJJQiw-33" style="edgeStyle=orthogonalEdgeStyle;rounded=0;orthogonalLoop=1;jettySize=auto;html=1;exitX=0;exitY=0.5;exitDx=0;exitDy=0;fillColor=#dae8fc;strokeColor=#6c8ebf;" edge="1" parent="1" source="hTNN_E_6Pw_U0okJJQiw-4">
          <mxGeometry relative="1" as="geometry">
            <mxPoint x="60" y="-80" as="targetPoint" />
          </mxGeometry>
        </mxCell>
        <mxCell id="hTNN_E_6Pw_U0okJJQiw-34" value="instruction&lt;br&gt;done" style="edgeLabel;html=1;align=center;verticalAlign=middle;resizable=0;points=[];" vertex="1" connectable="0" parent="hTNN_E_6Pw_U0okJJQiw-33">
          <mxGeometry x="0.7606" relative="1" as="geometry">
            <mxPoint y="-65" as="offset" />
          </mxGeometry>
        </mxCell>
        <mxCell id="hTNN_E_6Pw_U0okJJQiw-4" value="OFM&lt;br&gt;Drainer" style="rounded=1;whiteSpace=wrap;html=1;" vertex="1" parent="1">
          <mxGeometry x="83.75" y="80" width="50" height="50" as="geometry" />
        </mxCell>
        <mxCell id="hTNN_E_6Pw_U0okJJQiw-15" style="edgeStyle=orthogonalEdgeStyle;rounded=0;orthogonalLoop=1;jettySize=auto;html=1;entryX=0.5;entryY=1;entryDx=0;entryDy=0;fillColor=#f8cecc;strokeColor=#b85450;" edge="1" parent="1" source="hTNN_E_6Pw_U0okJJQiw-5" target="hTNN_E_6Pw_U0okJJQiw-4">
          <mxGeometry relative="1" as="geometry" />
        </mxCell>
        <mxCell id="hTNN_E_6Pw_U0okJJQiw-5" value="datatype&lt;br&gt;converter" style="rounded=1;whiteSpace=wrap;html=1;" vertex="1" parent="1">
          <mxGeometry x="80" y="150" width="57.5" height="130" as="geometry" />
        </mxCell>
        <mxCell id="hTNN_E_6Pw_U0okJJQiw-9" value="Bias&lt;br&gt;Feeder" style="rounded=1;whiteSpace=wrap;html=1;" vertex="1" parent="1">
          <mxGeometry x="290" y="80" width="50" height="50" as="geometry" />
        </mxCell>
        <mxCell id="hTNN_E_6Pw_U0okJJQiw-10" style="edgeStyle=orthogonalEdgeStyle;rounded=0;orthogonalLoop=1;jettySize=auto;html=1;entryX=0.192;entryY=0.002;entryDx=0;entryDy=0;entryPerimeter=0;fillColor=#f8cecc;strokeColor=#b85450;" edge="1" parent="1" source="hTNN_E_6Pw_U0okJJQiw-3" target="hTNN_E_6Pw_U0okJJQiw-1">
          <mxGeometry relative="1" as="geometry" />
        </mxCell>
        <mxCell id="hTNN_E_6Pw_U0okJJQiw-11" style="edgeStyle=orthogonalEdgeStyle;rounded=0;orthogonalLoop=1;jettySize=auto;html=1;entryX=0.533;entryY=-0.002;entryDx=0;entryDy=0;entryPerimeter=0;fillColor=#f8cecc;strokeColor=#b85450;" edge="1" parent="1" source="hTNN_E_6Pw_U0okJJQiw-2" target="hTNN_E_6Pw_U0okJJQiw-1">
          <mxGeometry relative="1" as="geometry" />
        </mxCell>
        <mxCell id="hTNN_E_6Pw_U0okJJQiw-12" style="edgeStyle=orthogonalEdgeStyle;rounded=0;orthogonalLoop=1;jettySize=auto;html=1;entryX=0.86;entryY=0.006;entryDx=0;entryDy=0;entryPerimeter=0;fillColor=#f8cecc;strokeColor=#b85450;" edge="1" parent="1" source="hTNN_E_6Pw_U0okJJQiw-9" target="hTNN_E_6Pw_U0okJJQiw-1">
          <mxGeometry relative="1" as="geometry" />
        </mxCell>
        <mxCell id="hTNN_E_6Pw_U0okJJQiw-16" value="Arbiter" style="rounded=1;whiteSpace=wrap;html=1;" vertex="1" parent="1">
          <mxGeometry x="83.75" y="10" width="256.25" height="40" as="geometry" />
        </mxCell>
        <mxCell id="hTNN_E_6Pw_U0okJJQiw-18" style="edgeStyle=orthogonalEdgeStyle;rounded=0;orthogonalLoop=1;jettySize=auto;html=1;entryX=1;entryY=0.5;entryDx=0;entryDy=0;fillColor=#dae8fc;strokeColor=#6c8ebf;" edge="1" parent="1" source="hTNN_E_6Pw_U0okJJQiw-17" target="hTNN_E_6Pw_U0okJJQiw-9">
          <mxGeometry relative="1" as="geometry">
            <Array as="points">
              <mxPoint x="410" y="105" />
            </Array>
          </mxGeometry>
        </mxCell>
        <mxCell id="hTNN_E_6Pw_U0okJJQiw-35" style="edgeStyle=orthogonalEdgeStyle;rounded=0;orthogonalLoop=1;jettySize=auto;html=1;fillColor=#dae8fc;strokeColor=#6c8ebf;" edge="1" parent="1">
          <mxGeometry relative="1" as="geometry">
            <mxPoint x="409.75" y="10" as="targetPoint" />
            <mxPoint x="410" y="-80" as="sourcePoint" />
            <Array as="points">
              <mxPoint x="410" y="-40" />
              <mxPoint x="410" y="-40" />
            </Array>
          </mxGeometry>
        </mxCell>
        <mxCell id="hTNN_E_6Pw_U0okJJQiw-36" value="instruction" style="edgeLabel;html=1;align=center;verticalAlign=middle;resizable=0;points=[];" vertex="1" connectable="0" parent="hTNN_E_6Pw_U0okJJQiw-35">
          <mxGeometry x="-0.2319" relative="1" as="geometry">
            <mxPoint y="-75" as="offset" />
          </mxGeometry>
        </mxCell>
        <mxCell id="hTNN_E_6Pw_U0okJJQiw-17" value="Instruction&lt;br&gt;Feeder" style="rounded=1;whiteSpace=wrap;html=1;" vertex="1" parent="1">
          <mxGeometry x="370" y="10" width="80" height="40" as="geometry" />
        </mxCell>
        <mxCell id="hTNN_E_6Pw_U0okJJQiw-24" style="edgeStyle=orthogonalEdgeStyle;rounded=0;orthogonalLoop=1;jettySize=auto;html=1;entryX=1.004;entryY=0.23;entryDx=0;entryDy=0;entryPerimeter=0;fillColor=#dae8fc;strokeColor=#6c8ebf;" edge="1" parent="1" source="hTNN_E_6Pw_U0okJJQiw-17" target="hTNN_E_6Pw_U0okJJQiw-1">
          <mxGeometry relative="1" as="geometry">
            <Array as="points">
              <mxPoint x="410" y="180" />
            </Array>
          </mxGeometry>
        </mxCell>
        <mxCell id="hTNN_E_6Pw_U0okJJQiw-25" style="edgeStyle=orthogonalEdgeStyle;rounded=0;orthogonalLoop=1;jettySize=auto;html=1;exitX=0.5;exitY=0;exitDx=0;exitDy=0;entryX=0.098;entryY=1;entryDx=0;entryDy=0;entryPerimeter=0;fillColor=#f8cecc;strokeColor=#b85450;" edge="1" parent="1">
          <mxGeometry relative="1" as="geometry">
            <mxPoint x="113.68" y="80" as="sourcePoint" />
            <mxPoint x="113.79250000000002" y="50" as="targetPoint" />
          </mxGeometry>
        </mxCell>
        <mxCell id="hTNN_E_6Pw_U0okJJQiw-26" style="edgeStyle=orthogonalEdgeStyle;rounded=0;orthogonalLoop=1;jettySize=auto;html=1;exitX=0.5;exitY=0;exitDx=0;exitDy=0;entryX=0.098;entryY=1;entryDx=0;entryDy=0;entryPerimeter=0;fillColor=#f8cecc;strokeColor=#b85450;" edge="1" parent="1">
          <mxGeometry relative="1" as="geometry">
            <mxPoint x="103.65250000000002" y="50" as="sourcePoint" />
            <mxPoint x="103.54" y="80" as="targetPoint" />
          </mxGeometry>
        </mxCell>
        <mxCell id="hTNN_E_6Pw_U0okJJQiw-27" style="edgeStyle=orthogonalEdgeStyle;rounded=0;orthogonalLoop=1;jettySize=auto;html=1;exitX=0.5;exitY=0;exitDx=0;exitDy=0;entryX=0.098;entryY=1;entryDx=0;entryDy=0;entryPerimeter=0;fillColor=#f8cecc;strokeColor=#b85450;" edge="1" parent="1">
          <mxGeometry relative="1" as="geometry">
            <mxPoint x="199.93" y="80" as="sourcePoint" />
            <mxPoint x="200.04250000000002" y="50" as="targetPoint" />
          </mxGeometry>
        </mxCell>
        <mxCell id="hTNN_E_6Pw_U0okJJQiw-28" style="edgeStyle=orthogonalEdgeStyle;rounded=0;orthogonalLoop=1;jettySize=auto;html=1;exitX=0.5;exitY=0;exitDx=0;exitDy=0;entryX=0.098;entryY=1;entryDx=0;entryDy=0;entryPerimeter=0;fillColor=#f8cecc;strokeColor=#b85450;" edge="1" parent="1">
          <mxGeometry relative="1" as="geometry">
            <mxPoint x="189.90250000000003" y="50" as="sourcePoint" />
            <mxPoint x="189.79000000000002" y="80" as="targetPoint" />
          </mxGeometry>
        </mxCell>
        <mxCell id="hTNN_E_6Pw_U0okJJQiw-29" style="edgeStyle=orthogonalEdgeStyle;rounded=0;orthogonalLoop=1;jettySize=auto;html=1;exitX=0.5;exitY=0;exitDx=0;exitDy=0;entryX=0.098;entryY=1;entryDx=0;entryDy=0;entryPerimeter=0;fillColor=#f8cecc;strokeColor=#b85450;" edge="1" parent="1">
          <mxGeometry relative="1" as="geometry">
            <mxPoint x="259.93" y="80" as="sourcePoint" />
            <mxPoint x="260.0425" y="50" as="targetPoint" />
          </mxGeometry>
        </mxCell>
        <mxCell id="hTNN_E_6Pw_U0okJJQiw-30" style="edgeStyle=orthogonalEdgeStyle;rounded=0;orthogonalLoop=1;jettySize=auto;html=1;exitX=0.5;exitY=0;exitDx=0;exitDy=0;entryX=0.098;entryY=1;entryDx=0;entryDy=0;entryPerimeter=0;fillColor=#f8cecc;strokeColor=#b85450;" edge="1" parent="1">
          <mxGeometry relative="1" as="geometry">
            <mxPoint x="249.90250000000003" y="50" as="sourcePoint" />
            <mxPoint x="249.79000000000002" y="80" as="targetPoint" />
          </mxGeometry>
        </mxCell>
        <mxCell id="hTNN_E_6Pw_U0okJJQiw-31" style="edgeStyle=orthogonalEdgeStyle;rounded=0;orthogonalLoop=1;jettySize=auto;html=1;exitX=0.5;exitY=0;exitDx=0;exitDy=0;entryX=0.098;entryY=1;entryDx=0;entryDy=0;entryPerimeter=0;fillColor=#f8cecc;strokeColor=#b85450;" edge="1" parent="1">
          <mxGeometry relative="1" as="geometry">
            <mxPoint x="319.93" y="80" as="sourcePoint" />
            <mxPoint x="320.0425" y="50" as="targetPoint" />
          </mxGeometry>
        </mxCell>
        <mxCell id="hTNN_E_6Pw_U0okJJQiw-32" style="edgeStyle=orthogonalEdgeStyle;rounded=0;orthogonalLoop=1;jettySize=auto;html=1;exitX=0.5;exitY=0;exitDx=0;exitDy=0;entryX=0.098;entryY=1;entryDx=0;entryDy=0;entryPerimeter=0;fillColor=#f8cecc;strokeColor=#b85450;" edge="1" parent="1">
          <mxGeometry relative="1" as="geometry">
            <mxPoint x="309.90250000000003" y="50" as="sourcePoint" />
            <mxPoint x="309.79" y="80" as="targetPoint" />
          </mxGeometry>
        </mxCell>
        <mxCell id="hTNN_E_6Pw_U0okJJQiw-37" style="edgeStyle=orthogonalEdgeStyle;rounded=0;orthogonalLoop=1;jettySize=auto;html=1;exitX=0.5;exitY=0;exitDx=0;exitDy=0;fillColor=#f8cecc;strokeColor=#b85450;" edge="1" parent="1">
          <mxGeometry relative="1" as="geometry">
            <mxPoint x="216.89000000000001" y="10" as="sourcePoint" />
            <mxPoint x="217" y="-80" as="targetPoint" />
            <Array as="points">
              <mxPoint x="217" y="-80" />
            </Array>
          </mxGeometry>
        </mxCell>
        <mxCell id="hTNN_E_6Pw_U0okJJQiw-39" value="sram read/write" style="edgeLabel;html=1;align=center;verticalAlign=middle;resizable=0;points=[];" vertex="1" connectable="0" parent="hTNN_E_6Pw_U0okJJQiw-37">
          <mxGeometry x="-0.0415" relative="1" as="geometry">
            <mxPoint x="-5" y="-86" as="offset" />
          </mxGeometry>
        </mxCell>
        <mxCell id="hTNN_E_6Pw_U0okJJQiw-38" style="edgeStyle=orthogonalEdgeStyle;rounded=0;orthogonalLoop=1;jettySize=auto;html=1;entryX=0.098;entryY=1;entryDx=0;entryDy=0;entryPerimeter=0;fillColor=#f8cecc;strokeColor=#b85450;" edge="1" parent="1">
          <mxGeometry relative="1" as="geometry">
            <mxPoint x="207" y="-80" as="sourcePoint" />
            <mxPoint x="206.75000000000003" y="10" as="targetPoint" />
            <Array as="points">
              <mxPoint x="207" y="-40" />
            </Array>
          </mxGeometry>
        </mxCell>
        <mxCell id="hTNN_E_6Pw_U0okJJQiw-40" value="" style="rounded=0;whiteSpace=wrap;html=1;fillColor=none;" vertex="1" parent="1">
          <mxGeometry y="-40" width="480" height="350" as="geometry" />
        </mxCell>
        <mxCell id="hTNN_E_6Pw_U0okJJQiw-41" value="TX" style="text;html=1;strokeColor=none;fillColor=none;align=center;verticalAlign=middle;whiteSpace=wrap;rounded=0;" vertex="1" parent="1">
          <mxGeometry y="-40" width="60" height="30" as="geometry" />
        </mxCell>
      </root>
    </mxGraphModel>
  </diagram>
</mxfile>
